HIERARCHY
ROOT Hips
{
  OFFSET 57.8838 95.319 338.509
  CHANNELS 6 Xposition Yposition Zposition Zrotation Xrotation Yrotation
  JOINT LeftUpLeg
  {
    OFFSET 8.64259 1.95398 -2.38835
    CHANNELS 3 Zrotation Xrotation Yrotation
    JOINT LeftLeg
    {
      OFFSET 43.7702 0 0
      CHANNELS 3 Zrotation Xrotation Yrotation
      JOINT LeftFoot
      {
        OFFSET 40.6238 0 0
        CHANNELS 3 Zrotation Xrotation Yrotation
        JOINT LeftToeBase
        {
          OFFSET 12.7242 0 0
          CHANNELS 3 Zrotation Xrotation Yrotation
          End Site
          {
            OFFSET 0 0 0
          }
        }
      }
    }
  }
  JOINT RightUpLeg
  {
    OFFSET -8.2249 1.95398 -2.59336
    CHANNELS 3 Zrotation Xrotation Yrotation
    JOINT RightLeg
    {
      OFFSET 43.5653 0 0
      CHANNELS 3 Zrotation Xrotation Yrotation
      JOINT RightFoot
      {
        OFFSET 40.6238 0 0
        CHANNELS 3 Zrotation Xrotation Yrotation
        JOINT RightToeBase
        {
          OFFSET 12.7242 0 0
          CHANNELS 3 Zrotation Xrotation Yrotation
          End Site
          {
            OFFSET 0 0 0
          }
        }
      }
    }
  }
  JOINT Spine
  {
    OFFSET 0.165834 0.87714 6.61349
    CHANNELS 3 Zrotation Xrotation Yrotation
    JOINT Spine1
    {
      OFFSET 7.38963 1.71661e-005 0
      CHANNELS 3 Zrotation Xrotation Yrotation
      JOINT Spine2
      {
        OFFSET 11.9445 1.14441e-005 0
        CHANNELS 3 Zrotation Xrotation Yrotation
        JOINT Spine3
        {
          OFFSET 14.7254 4.19617e-005 0
          CHANNELS 3 Zrotation Xrotation Yrotation
          JOINT Spine4
          {
            OFFSET 10.9679 0 0
            CHANNELS 3 Zrotation Xrotation Yrotation
            JOINT RightShoulder
            {
              OFFSET 2.46616 -1.6653 3.69651
              CHANNELS 3 Zrotation Xrotation Yrotation
              JOINT RightArm
              {
                OFFSET 13.0012 0 0
                CHANNELS 3 Zrotation Xrotation Yrotation
                JOINT RightForeArm
                {
                  OFFSET 28.7848 1.62311e-005 0
                  CHANNELS 3 Zrotation Xrotation Yrotation
                  JOINT RightHand
                  {
                    OFFSET 26.5688 1.62095e-005 0
                    CHANNELS 3 Zrotation Xrotation Yrotation
                    End Site
                    {
                      OFFSET 0 0 0
                    }
                  }
                }
              }
            }
            JOINT LeftShoulder
            {
              OFFSET 2.38034 -1.29275 -3.7523
              CHANNELS 3 Zrotation Xrotation Yrotation
              JOINT LeftArm
              {
                OFFSET 16.3182 6.07031e-005 0
                CHANNELS 3 Zrotation Xrotation Yrotation
                JOINT LeftForeArm
                {
                  OFFSET 27.0901 0 0
                  CHANNELS 3 Zrotation Xrotation Yrotation
                  JOINT LeftHand
                  {
                    OFFSET 24.5451 1.51738e-005 0
                    CHANNELS 3 Zrotation Xrotation Yrotation
                    End Site
                    {
                      OFFSET 0 0 0
                    }
                  }
                }
              }
            }
            JOINT Neck
            {
              OFFSET 5.0226 -0.0266342 0
              CHANNELS 3 Zrotation Xrotation Yrotation
              JOINT Head
              {
                OFFSET 6.69364 2.86102e-005 0
                CHANNELS 3 Zrotation Xrotation Yrotation
                End Site
                {
                  OFFSET 0 0 0
                }
              }
            }
          }
        }
      }
    }
  }
}
MOTION
Frames:	10
Frame Time:	0.0416667
-0.862454 97.3422 -12.2753 129.024 -85.6335 128.917 -177.436 2.56383 89.3248 -13.2684 3.02674 1.29953 64.5341 2.48835 -0.129757 29.2018 0.0861363 1.48981 172.567 1.13194 90.1569 -14.4291 -4.47679 -0.201896 66.0539 -5.05695 2.64049 30.2252 -1.92534 0.491932 -0.353029 7.04731 -90.1545 12.7902 -0.774909 -0.216116 1.11951 -0.78367 -0.181809 -21.417 -0.674138 -0.439027 -1.40435 -0.674134 -0.439028 93.5063 -53.6737 -94.8356 25.6454 -13.1753 -5.56158 6.68808 12.9231 -51.6692 5.38191 -0.258561 -9.49486 -83.7714 -56.2613 88.7376 -25.4711 6.18532 -10.8753 -18.4034 1.59284 -32.8861 -5.03459 0.139313 -14.2144 21.1982 -0.316183 4.13014 -16.6775 -1.55781 -0.737761 
-0.878315 97.3254 -12.2601 132.174 -85.8091 132.077 -177.352 2.4527 89.3932 -13.2596 3.03063 1.24896 64.5304 2.42126 -0.118828 29.4248 0.186104 1.38765 172.606 1.07532 90.172 -14.4479 -4.55912 -0.251177 66.1595 -5.25243 2.78067 30.1681 -1.85022 0.513849 -0.324036 7.04737 -90.1517 12.7831 -0.71601 -0.217725 1.11233 -0.724897 -0.186003 -21.4239 -0.617474 -0.422852 -1.41128 -0.617476 -0.422859 93.4508 -53.7548 -94.905 25.5932 -13.2771 -5.5285 6.75614 13.0302 -51.6605 5.3408 -0.262069 -9.59407 -83.7151 -56.2011 88.8111 -25.5879 5.99212 -10.9335 -18.1779 1.75602 -32.5716 -5.7447 0.212031 -14.6274 20.7445 -0.027025 4.17753 -16.2519 -1.20252 -1.32579 
-0.887162 97.3274 -12.2481 133.445 -85.8587 133.344 -177.379 2.33098 89.3255 -13.0438 2.08936 1.33066 64.6657 2.37271 -0.443124 28.8731 -0.0200756 0.953656 172.643 1.05433 90.1866 -14.4854 -4.76383 -0.281183 66.0969 -5.19522 2.62908 30.1574 -1.8357 0.441262 -0.31397 7.03846 -90.1524 12.7957 -0.696347 -0.221529 1.12488 -0.705426 -0.190668 -21.4113 -0.597585 -0.420578 -1.39864 -0.597579 -0.420575 93.5875 -53.7708 -94.7009 25.5779 -13.4108 -5.69433 6.63218 13.0493 -51.1738 5.54292 -0.280986 -9.79616 -83.7384 -56.2077 88.7786 -25.5096 6.02009 -10.9251 -18.3437 1.52866 -32.5381 -5.97135 0.228748 -14.5066 20.1816 -0.184246 4.03425 -15.2897 -1.30218 -1.29803 
-0.873744 97.3318 -12.2513 133.71 -85.8457 133.636 -177.205 2.44173 89.4403 -13.3158 2.66149 1.16909 64.7035 2.43616 -0.32517 29.1104 0.0486967 1.47029 172.587 1.04426 90.1534 -14.5064 -4.86525 -0.216997 66.1275 -5.14907 2.81045 30.2026 -1.89387 0.132539 -0.305104 7.04496 -90.1609 12.7833 -0.682859 -0.240317 1.11255 -0.692779 -0.210028 -21.4235 -0.579067 -0.434435 -1.41088 -0.579068 -0.434436 93.6632 -53.7975 -94.585 25.4939 -13.4223 -5.80503 6.71839 13.053 -51.2026 5.25987 -0.260768 -9.62951 -83.7792 -56.3019 88.7304 -25.4656 6.02628 -11.092 -18.4682 1.2687 -32.4037 -5.92336 0.22716 -14.5921 20.3318 -0.419291 3.84456 -15.0326 -1.53775 -0.801928 
-0.886769 97.3397 -12.2514 133.223 -85.796 133.234 -177.299 2.31062 89.4501 -13.0589 2.23995 1.3157 64.6703 2.40462 -0.361615 29.0088 0.0439509 0.82787 172.691 0.962076 90.3102 -14.4077 -4.51202 -0.309446 66.1395 -5.15951 2.85212 30.1046 -1.7648 0.276062 -0.323756 7.04349 -90.1713 12.7855 -0.724878 -0.255974 1.11478 -0.735436 -0.223821 -21.4214 -0.614433 -0.461995 -1.40878 -0.614429 -0.461997 93.5378 -53.8673 -94.7594 25.3271 -13.5131 -5.80029 6.74754 13.1325 -51.267 5.48131 -0.278329 -9.79409 -83.7482 -56.151 88.7591 -25.6849 5.98177 -10.991 -18.397 1.34727 -32.6449 -5.89098 0.215002 -14.2894 20.5364 -0.370453 3.73125 -15.2903 -1.47472 -0.671755 
-0.908866 97.3356 -12.2487 133.745 -85.7953 133.695 -177.246 2.30431 89.4427 -13.1052 2.41818 1.24674 64.6523 2.41547 -0.343518 28.8974 -0.0252177 1.21083 172.667 0.966936 90.2509 -14.4456 -4.56295 -0.306441 66.1245 -5.08936 2.89972 30.2088 -1.90296 0.335951 -0.318244 7.05373 -90.1614 12.7651 -0.709192 -0.238339 1.0943 -0.718998 -0.206908 -21.4419 -0.60478 -0.440469 -1.42923 -0.604776 -0.440479 93.5697 -53.8697 -94.7119 25.3163 -13.436 -5.98442 6.65844 13.0485 -51.3293 5.58892 -0.286806 -9.86612 -83.7495 -55.9748 88.7406 -25.9924 5.73971 -11.278 -17.9617 1.68862 -32.4217 -5.96194 0.227501 -14.4978 21.1162 -0.504837 3.4841 -15.8542 -1.5545 -0.560802 
-0.893062 97.3346 -12.2608 134.608 -85.8159 134.504 -177.222 2.31674 89.4151 -13.2099 2.52902 1.18996 64.6582 2.34956 -0.302874 28.9379 -0.0213495 1.42849 172.643 0.975707 90.1765 -14.5024 -4.65889 -0.311408 66.1316 -5.20654 2.86553 30.2059 -1.89952 0.391386 -0.301371 7.05668 -90.1664 12.7599 -0.67804 -0.251963 1.08913 -0.688475 -0.221885 -21.4469 -0.570969 -0.4441 -1.43427 -0.57097 -0.444101 93.5919 -53.6304 -94.716 25.2367 -13.3529 -6.30014 7.15774 13.4079 -51.2652 5.5075 -0.283291 -9.8678 -83.7538 -55.8833 88.7255 -26.4229 5.40956 -11.8646 -17.973 1.19703 -31.9764 -6.32984 0.277691 -14.9754 21.2829 -0.551305 3.6182 -15.9984 -1.63895 -0.633249 
-0.912161 97.325 -12.2497 136.264 -85.9066 136.101 -177.221 2.17253 89.3603 -13.0196 2.15708 1.18601 64.7471 2.36602 -0.432372 28.7563 -0.0918153 1.3304 172.633 1.02707 90.1151 -14.5955 -4.82323 -0.310099 66.1391 -5.37598 2.60515 30.1731 -1.85772 0.682196 -0.287565 7.04656 -90.1682 12.7801 -0.651499 -0.258551 1.10928 -0.662245 -0.22963 -21.4266 -0.543669 -0.4424 -1.414 -0.543679 -0.442416 93.5063 -53.2668 -94.8996 25.14 -13.8262 -6.63379 7.42504 13.6766 -51.3152 4.92804 -0.236133 -9.39314 -83.6633 -55.7385 88.8397 -26.7578 5.42548 -12.6374 -18.8978 -0.756066 -31.908 -6.96973 0.3071 -14.2519 21.0587 -0.480185 3.96536 -15.7494 -1.6299 -1.01975 
-0.933432 97.3218 -12.2591 136.579 -85.9389 136.173 -177.206 2.08432 89.2059 -12.7831 2.4352 1.02773 64.5182 2.37691 -0.185617 28.7923 -0.0779969 1.35364 172.616 1.21894 89.9269 -14.9132 -4.86325 -0.38581 66.2319 -5.15095 2.74755 30.2895 -2.0103 0.496391 -0.282609 7.02626 -90.1441 12.8209 -0.630182 -0.212708 1.15005 -0.638931 -0.184769 -21.3859 -0.537123 -0.392269 -1.37324 -0.537121 -0.392273 93.7137 -52.6029 -94.6944 25.1297 -14.858 -7.62428 7.75627 14.14 -51.0175 4.13932 -0.220481 -9.72702 -83.5872 -55.5691 88.9313 -27.0264 5.65508 -13.89 -19.8856 -2.75601 -31.9594 -6.50442 0.260753 -14.0856 20.952 -0.395199 3.84949 -16.0549 -1.54563 -0.683965 
-0.908546 97.3375 -12.418 127.226 -85.2514 127.085 -177.419 2.56936 89.3302 -13.1833 2.66242 1.31588 64.5776 2.47958 -0.508244 28.7944 -0.0548597 0.990706 172.619 1.14211 90.2261 -14.6075 -4.05727 -0.298081 66.1038 -5.05852 2.66762 30.1653 -1.84546 0.338083 -0.379831 6.98597 -90.1615 12.9013 -0.831533 -0.222431 1.23064 -0.840522 -0.185624 -21.3061 -0.726245 -0.462072 -1.29345 -0.726246 -0.462072 93.9534 -52.0914 -94.4133 24.7062 -15.8722 -9.08212 9.14519 15.5396 -50.9564 4.06223 -0.222436 -9.87987 -83.5767 -55.3431 88.925 -26.7868 6.15392 -15.381 -20.3014 -3.36908 -32.3247 -6.35567 0.236887 -13.7676 20.3301 -0.50751 4.08829 -16.1725 -1.64965 -1.15878 
